<svg xmlns="http://www.w3.org/2000/svg" xmlns:xlink="http://www.w3.org/1999/xlink" xmlns:lucid="lucid" width="640" height="680"><g transform="translate(-160 -140)" lucid:page-tab-id="0_0"><path d="M400 160h160v120H400z" stroke="#000" stroke-width="2" fill="#fff"/><use xlink:href="#a" transform="matrix(1,0,0,1,405,165) translate(52.075 58.6)"/><path d="M400 420h160v120H400z" stroke="#000" stroke-width="2" fill="#fff"/><use xlink:href="#b" transform="matrix(1,0,0,1,405,425) translate(48.55 58.6)"/><path d="M180 680h160v120H180z" stroke="#000" stroke-width="2" fill="#fff"/><use xlink:href="#c" transform="matrix(1,0,0,1,185,685) translate(46.25 58.6)"/><path d="M400 680h160v120H400z" stroke="#000" stroke-width="2" fill="#fff"/><use xlink:href="#c" transform="matrix(1,0,0,1,405,685) translate(46.25 58.6)"/><path d="M620 680h160v120H620z" stroke="#000" stroke-width="2" fill="#fff"/><use xlink:href="#c" transform="matrix(1,0,0,1,625,685) translate(46.25 58.6)"/><path d="M400 280h160v40H400z" stroke="#000" stroke-width="2" fill="#fff"/><use xlink:href="#d" transform="matrix(1,0,0,1,405,285) translate(39.05 18.6)"/><path d="M400 380h160v40H400z" stroke="#000" stroke-width="2" fill="#fff"/><use xlink:href="#e" transform="matrix(1,0,0,1,405,385) translate(37.099999999999994 18.6)"/><path d="M400 540h160v40H400z" stroke="#000" stroke-width="2" fill="#fff"/><use xlink:href="#e" transform="matrix(1,0,0,1,405,545) translate(37.099999999999994 18.6)"/><path d="M180 640h160v40H180z" stroke="#000" stroke-width="2" fill="#fff"/><use xlink:href="#d" transform="matrix(1,0,0,1,185,645) translate(39.05 18.6)"/><path d="M400 640h160v40H400z" stroke="#000" stroke-width="2" fill="#fff"/><use xlink:href="#d" transform="matrix(1,0,0,1,405,645) translate(39.05 18.6)"/><path d="M620 640h160v40H620z" stroke="#000" stroke-width="2" fill="#fff"/><use xlink:href="#d" transform="matrix(1,0,0,1,625,645) translate(39.05 18.6)"/><path d="M456 322v38.5" stroke="#000" stroke-width="2" fill="none"/><path d="M457 322.03h-2V321h2z"/><path d="M456 375.76l-4.64-14.26h9.28z" stroke="#000" stroke-width="2"/><path d="M504 378v-38.5" stroke="#000" stroke-width="2" fill="none"/><path d="M505 379h-2v-1.03h2z"/><path d="M504 324.24l4.64 14.26h-9.28z" stroke="#000" stroke-width="2"/><path d="M740 638v-88H578.5" stroke="#000" stroke-width="2" fill="none"/><path d="M741 639h-2v-1.03h2z"/><path d="M563.24 550l14.26-4.64v9.28z" stroke="#000" stroke-width="2"/><path d="M221.33 638v-88H381.5" stroke="#000" stroke-width="2" fill="none"/><path d="M222.33 639h-2v-1.03h2z"/><path d="M396.76 550l-14.26 4.64v-9.28z" stroke="#000" stroke-width="2"/><path d="M498.67 638v-38.5" stroke="#000" stroke-width="2" fill="none"/><path d="M499.67 639h-2v-1.03h2z"/><path d="M498.67 584.24l4.63 14.26h-9.27z" stroke="#000" stroke-width="2"/><path d="M360 320h100v60H360z" stroke="#000" stroke-opacity="0" stroke-width="2" fill="#fff" fill-opacity="0"/><use xlink:href="#f" transform="matrix(1,0,0,1,365,325) translate(11.524999999999999 28.6)"/><path d="M500 312.6h220v74.8H500z" stroke="#000" stroke-opacity="0" stroke-width="2" fill="#fff" fill-opacity="0"/><use xlink:href="#g" transform="matrix(1,0,0,1,505,317.6) translate(8.699999999999989 36.1)"/><use xlink:href="#h" transform="matrix(1,0,0,1,505,317.6) translate(94.64999999999999 36.1)"/><use xlink:href="#i" transform="matrix(1,0,0,1,505,317.6) translate(141.5 36.1)"/><path d="M449.33 582v38.5" stroke="#000" stroke-width="2" fill="none"/><path d="M450.33 582.03h-2V581h2z"/><path d="M449.33 635.76l-4.63-14.26h9.27z" stroke="#000" stroke-width="2"/><path d="M398 560H232v60.5" stroke="#000" stroke-width="2" fill="none"/><path d="M399 561h-1.03v-2H399z"/><path d="M232 635.76l-4.64-14.26h9.28z" stroke="#000" stroke-width="2"/><path d="M562 560h167.33v60.5" stroke="#000" stroke-width="2" fill="none"/><path d="M562.03 561H561v-2h1.03z"/><path d="M729.33 635.76l-4.63-14.26h9.27z" stroke="#000" stroke-width="2"/><path d="M240 560h120v60H240z" stroke="#000" stroke-opacity="0" stroke-width="2" fill="#fff" fill-opacity="0"/><use xlink:href="#j" transform="matrix(1,0,0,1,245,565) translate(21.525 17.799999999999997)"/><use xlink:href="#h" transform="matrix(1,0,0,1,245,565) translate(7.649999999999999 39.4)"/><use xlink:href="#k" transform="matrix(1,0,0,1,245,565) translate(54.5 39.4)"/><path d="M230 500h140v60H230z" stroke="#000" stroke-opacity="0" stroke-width="2" fill="#fff" fill-opacity="0"/><g><use xlink:href="#l" transform="matrix(1,0,0,1,235,505) translate(24.525 28.6)"/></g><defs><path d="M212-179c-10-28-35-45-73-45-59 0-87 40-87 99 0 60 29 101 89 101 43 0 62-24 78-52l27 14C228-24 195 4 139 4 59 4 22-46 18-125c-6-104 99-153 187-111 19 9 31 26 39 46" id="m"/><path d="M24 0v-261h32V0H24" id="n"/><path d="M24-231v-30h32v30H24zM24 0v-190h32V0H24" id="o"/><path d="M100-194c63 0 86 42 84 106H49c0 40 14 67 53 68 26 1 43-12 49-29l28 8c-11 28-37 45-77 45C44 4 14-33 15-96c1-61 26-98 85-98zm52 81c6-60-76-77-97-28-3 7-6 17-6 28h103" id="p"/><path d="M117-194c89-4 53 116 60 194h-32v-121c0-31-8-49-39-48C34-167 62-67 57 0H25l-1-190h30c1 10-1 24 2 32 11-22 29-35 61-36" id="q"/><path d="M59-47c-2 24 18 29 38 22v24C64 9 27 4 27-40v-127H5v-23h24l9-43h21v43h35v23H59v120" id="r"/><g id="a"><use transform="matrix(0.05,0,0,0.05,0,0)" xlink:href="#m"/><use transform="matrix(0.05,0,0,0.05,12.950000000000001,0)" xlink:href="#n"/><use transform="matrix(0.05,0,0,0.05,16.900000000000002,0)" xlink:href="#o"/><use transform="matrix(0.05,0,0,0.05,20.85,0)" xlink:href="#p"/><use transform="matrix(0.05,0,0,0.05,30.85,0)" xlink:href="#q"/><use transform="matrix(0.05,0,0,0.05,40.85,0)" xlink:href="#r"/></g><path d="M185-189c-5-48-123-54-124 2 14 75 158 14 163 119 3 78-121 87-175 55-17-10-28-26-33-46l33-7c5 56 141 63 141-1 0-78-155-14-162-118-5-82 145-84 179-34 5 7 8 16 11 25" id="s"/><path d="M114-163C36-179 61-72 57 0H25l-1-190h30c1 12-1 29 2 39 6-27 23-49 58-41v29" id="t"/><path d="M108 0H70L1-190h34L89-25l56-165h34" id="u"/><g id="b"><use transform="matrix(0.05,0,0,0.05,0,0)" xlink:href="#s"/><use transform="matrix(0.05,0,0,0.05,12,0)" xlink:href="#p"/><use transform="matrix(0.05,0,0,0.05,22,0)" xlink:href="#t"/><use transform="matrix(0.05,0,0,0.05,27.950000000000003,0)" xlink:href="#u"/><use transform="matrix(0.05,0,0,0.05,36.95,0)" xlink:href="#p"/><use transform="matrix(0.05,0,0,0.05,46.95,0)" xlink:href="#t"/></g><path d="M266 0h-40l-56-210L115 0H75L2-248h35L96-30l15-64 43-154h32l59 218 59-218h35" id="v"/><path d="M100-194c62-1 85 37 85 99 1 63-27 99-86 99S16-35 15-95c0-66 28-99 85-99zM99-20c44 1 53-31 53-75 0-43-8-75-51-75s-53 32-53 75 10 74 51 75" id="w"/><path d="M143 0L79-87 56-68V0H24v-261h32v163l83-92h37l-77 82L181 0h-38" id="x"/><g id="c"><use transform="matrix(0.05,0,0,0.05,0,0)" xlink:href="#v"/><use transform="matrix(0.05,0,0,0.05,16.599999999999998,0)" xlink:href="#w"/><use transform="matrix(0.05,0,0,0.05,26.599999999999994,0)" xlink:href="#t"/><use transform="matrix(0.05,0,0,0.05,32.55,0)" xlink:href="#x"/><use transform="matrix(0.05,0,0,0.05,41.55,0)" xlink:href="#p"/><use transform="matrix(0.05,0,0,0.05,51.54999999999999,0)" xlink:href="#t"/></g><path d="M30-248c118-7 216 8 213 122C240-48 200 0 122 0H30v-248zM63-27c89 8 146-16 146-99s-60-101-146-95v194" id="y"/><path d="M30 0v-248h187v28H63v79h144v27H63v87h162V0H30" id="z"/><path d="M205 0l-28-72H64L36 0H1l101-248h38L239 0h-34zm-38-99l-47-123c-12 45-31 82-46 123h93" id="A"/><path d="M30 0v-248h33v221h125V0H30" id="B"/><path d="M233-177c-1 41-23 64-60 70L243 0h-38l-65-103H63V0H30v-248c88 3 205-21 203 71zM63-129c60-2 137 13 137-47 0-61-80-42-137-45v92" id="C"/><g id="d"><use transform="matrix(0.05,0,0,0.05,0,0)" xlink:href="#y"/><use transform="matrix(0.05,0,0,0.05,12.950000000000001,0)" xlink:href="#z"/><use transform="matrix(0.05,0,0,0.05,24.950000000000003,0)" xlink:href="#A"/><use transform="matrix(0.05,0,0,0.05,36.95,0)" xlink:href="#B"/><use transform="matrix(0.05,0,0,0.05,46.95,0)" xlink:href="#z"/><use transform="matrix(0.05,0,0,0.05,58.95,0)" xlink:href="#C"/></g><path d="M140-251c81 0 123 46 123 126C263-46 219 4 140 4 59 4 17-45 17-125s42-126 123-126zm0 227c63 0 89-41 89-101s-29-99-89-99c-61 0-89 39-89 99S79-25 140-24" id="D"/><path d="M232-93c-1 65-40 97-104 97C67 4 28-28 28-90v-158h33c8 89-33 224 67 224 102 0 64-133 71-224h33v155" id="E"/><path d="M127-220V0H93v-220H8v-28h204v28h-85" id="F"/><g id="e"><use transform="matrix(0.05,0,0,0.05,0,0)" xlink:href="#C"/><use transform="matrix(0.05,0,0,0.05,12.950000000000001,0)" xlink:href="#D"/><use transform="matrix(0.05,0,0,0.05,26.950000000000003,0)" xlink:href="#E"/><use transform="matrix(0.05,0,0,0.05,39.900000000000006,0)" xlink:href="#F"/><use transform="matrix(0.05,0,0,0.05,50.85000000000001,0)" xlink:href="#z"/><use transform="matrix(0.05,0,0,0.05,62.85,0)" xlink:href="#C"/></g><path d="M145-31C134-9 116 4 85 4 32 4 16-35 15-94c0-59 17-99 70-100 32-1 48 14 60 33 0-11-1-24 2-32h30l-1 268h-32zM93-21c41 0 51-33 51-76s-8-73-50-73c-40 0-46 35-46 75s5 74 45 74" id="G"/><path d="M84 4C-5 8 30-112 23-190h32v120c0 31 7 50 39 49 72-2 45-101 50-169h31l1 190h-30c-1-10 1-25-2-33-11 22-28 36-60 37" id="H"/><path d="M135-143c-3-34-86-38-87 0 15 53 115 12 119 90S17 21 10-45l28-5c4 36 97 45 98 0-10-56-113-15-118-90-4-57 82-63 122-42 12 7 21 19 24 35" id="I"/><g id="f"><use transform="matrix(0.05,0,0,0.05,0,0)" xlink:href="#C"/><use transform="matrix(0.05,0,0,0.05,12.950000000000001,0)" xlink:href="#p"/><use transform="matrix(0.05,0,0,0.05,22.950000000000003,0)" xlink:href="#G"/><use transform="matrix(0.05,0,0,0.05,32.95,0)" xlink:href="#H"/><use transform="matrix(0.05,0,0,0.05,42.95,0)" xlink:href="#p"/><use transform="matrix(0.05,0,0,0.05,52.95,0)" xlink:href="#I"/><use transform="matrix(0.05,0,0,0.05,61.95,0)" xlink:href="#r"/></g><path d="M115-194c55 1 70 41 70 98S169 2 115 4C84 4 66-9 55-30l1 105H24l-1-265h31l2 30c10-21 28-34 59-34zm-8 174c40 0 45-34 45-75s-6-73-45-74c-42 0-51 32-51 76 0 43 10 73 51 73" id="J"/><g id="g"><use transform="matrix(0.05,0,0,0.05,0,0)" xlink:href="#C"/><use transform="matrix(0.05,0,0,0.05,12.950000000000001,0)" xlink:href="#p"/><use transform="matrix(0.05,0,0,0.05,22.950000000000003,0)" xlink:href="#I"/><use transform="matrix(0.05,0,0,0.05,31.950000000000003,0)" xlink:href="#J"/><use transform="matrix(0.05,0,0,0.05,41.95,0)" xlink:href="#w"/><use transform="matrix(0.05,0,0,0.05,51.95,0)" xlink:href="#q"/><use transform="matrix(0.05,0,0,0.05,61.95,0)" xlink:href="#I"/><use transform="matrix(0.05,0,0,0.05,70.95,0)" xlink:href="#p"/></g><path d="M87 75C49 33 22-17 22-94c0-76 28-126 65-167h31c-38 41-64 92-64 168S80 34 118 75H87" id="K"/><path d="M101-234c-31-9-42 10-38 44h38v23H63V0H32v-167H5v-23h27c-7-52 17-82 69-68v24" id="L"/><path d="M210-169c-67 3-38 105-44 169h-31v-121c0-29-5-50-35-48C34-165 62-65 56 0H25l-1-190h30c1 10-1 24 2 32 10-44 99-50 107 0 11-21 27-35 58-36 85-2 47 119 55 194h-31v-121c0-29-5-49-35-48" id="M"/><g id="h"><use transform="matrix(0.05,0,0,0.05,0,0)" xlink:href="#K"/><use transform="matrix(0.05,0,0,0.05,5.95,0)" xlink:href="#L"/><use transform="matrix(0.05,0,0,0.05,10.95,0)" xlink:href="#t"/><use transform="matrix(0.05,0,0,0.05,16.9,0)" xlink:href="#w"/><use transform="matrix(0.05,0,0,0.05,26.899999999999995,0)" xlink:href="#M"/></g><path d="M206 0h-36l-40-164L89 0H53L-1-190h32L70-26l43-164h34l41 164 42-164h31" id="N"/><path d="M33-261c38 41 65 92 65 168S71 34 33 75H2C39 34 66-17 66-93S39-220 2-261h31" id="O"/><g id="i"><use transform="matrix(0.05,0,0,0.05,0,0)" xlink:href="#N"/><use transform="matrix(0.05,0,0,0.05,12.950000000000001,0)" xlink:href="#w"/><use transform="matrix(0.05,0,0,0.05,22.950000000000003,0)" xlink:href="#t"/><use transform="matrix(0.05,0,0,0.05,28.900000000000002,0)" xlink:href="#x"/><use transform="matrix(0.05,0,0,0.05,37.900000000000006,0)" xlink:href="#p"/><use transform="matrix(0.05,0,0,0.05,47.900000000000006,0)" xlink:href="#t"/><use transform="matrix(0.05,0,0,0.05,53.85,0)" xlink:href="#O"/></g><g id="j"><use transform="matrix(0.05,0,0,0.05,0,0)" xlink:href="#C"/><use transform="matrix(0.05,0,0,0.05,12.950000000000001,0)" xlink:href="#p"/><use transform="matrix(0.05,0,0,0.05,22.950000000000003,0)" xlink:href="#G"/><use transform="matrix(0.05,0,0,0.05,32.95,0)" xlink:href="#H"/><use transform="matrix(0.05,0,0,0.05,42.95,0)" xlink:href="#p"/><use transform="matrix(0.05,0,0,0.05,52.95,0)" xlink:href="#I"/><use transform="matrix(0.05,0,0,0.05,61.95,0)" xlink:href="#r"/></g><path d="M96-169c-40 0-48 33-48 73s9 75 48 75c24 0 41-14 43-38l32 2c-6 37-31 61-74 61-59 0-76-41-82-99-10-93 101-131 147-64 4 7 5 14 7 22l-32 3c-4-21-16-35-41-35" id="P"/><g id="k"><use transform="matrix(0.05,0,0,0.05,0,0)" xlink:href="#P"/><use transform="matrix(0.05,0,0,0.05,9,0)" xlink:href="#n"/><use transform="matrix(0.05,0,0,0.05,12.949999999999998,0)" xlink:href="#o"/><use transform="matrix(0.05,0,0,0.05,16.9,0)" xlink:href="#p"/><use transform="matrix(0.05,0,0,0.05,26.899999999999995,0)" xlink:href="#q"/><use transform="matrix(0.05,0,0,0.05,36.9,0)" xlink:href="#r"/><use transform="matrix(0.05,0,0,0.05,41.9,0)" xlink:href="#O"/></g><g id="l"><use transform="matrix(0.05,0,0,0.05,0,0)" xlink:href="#C"/><use transform="matrix(0.05,0,0,0.05,12.950000000000001,0)" xlink:href="#p"/><use transform="matrix(0.05,0,0,0.05,22.950000000000003,0)" xlink:href="#I"/><use transform="matrix(0.05,0,0,0.05,31.950000000000003,0)" xlink:href="#J"/><use transform="matrix(0.05,0,0,0.05,41.95,0)" xlink:href="#w"/><use transform="matrix(0.05,0,0,0.05,51.95,0)" xlink:href="#q"/><use transform="matrix(0.05,0,0,0.05,61.95,0)" xlink:href="#I"/><use transform="matrix(0.05,0,0,0.05,70.95,0)" xlink:href="#p"/></g></defs></g></svg>